<svg width="12" height="14" viewBox="0 0 12 14" fill="none" xmlns="http://www.w3.org/2000/svg">
<path d="M6.7361 12.8759L6.61964 12.6547H6.61964L6.7361 12.8759ZM5.94617 12.8759L6.06263 12.6547H6.06263L5.94617 12.8759ZM11.4323 6.26841C11.4323 8.02718 10.5501 9.45718 9.49368 10.5395C8.43725 11.6218 7.22612 12.3354 6.61964 12.6547L6.85257 13.0971C7.48179 12.7659 8.74375 12.0236 9.85148 10.8888C10.9592 9.75392 11.9323 8.20544 11.9323 6.26841H11.4323ZM6.34114 1.22705C9.15511 1.22705 11.4323 3.48635 11.4323 6.26841H11.9323C11.9323 3.2058 9.42683 0.727051 6.34114 0.727051V1.22705ZM1.25 6.26841C1.25 3.48635 3.52717 1.22705 6.34114 1.22705V0.727051C3.25545 0.727051 0.75 3.2058 0.75 6.26841H1.25ZM6.06263 12.6547C5.45615 12.3354 4.24502 11.6218 3.1886 10.5395C2.13214 9.45718 1.25 8.02718 1.25 6.26841H0.75C0.75 8.20544 1.72309 9.75392 2.83079 10.8888C3.93853 12.0236 5.20049 12.7659 5.82971 13.0971L6.06263 12.6547ZM6.61964 12.6547C6.44263 12.7479 6.23964 12.7479 6.06263 12.6547L5.82971 13.0971C6.15252 13.2671 6.52976 13.2671 6.85257 13.0971L6.61964 12.6547ZM8.3802 6.26891C8.3802 7.38107 7.46949 8.28664 6.34114 8.28664V8.78664C7.74121 8.78664 8.8802 7.66161 8.8802 6.26891H8.3802ZM6.34114 4.25118C7.46949 4.25118 8.3802 5.15675 8.3802 6.26891H8.8802C8.8802 4.87621 7.74121 3.75118 6.34114 3.75118V4.25118ZM4.30208 6.26891C4.30208 5.15675 5.21278 4.25118 6.34114 4.25118V3.75118C4.94107 3.75118 3.80208 4.87621 3.80208 6.26891H4.30208ZM6.34114 8.28664C5.21278 8.28664 4.30208 7.38107 4.30208 6.26891H3.80208C3.80208 7.66161 4.94107 8.78664 6.34114 8.78664V8.28664Z" fill="#DAC891"/>
</svg>
