<svg width="321" height="81" viewBox="0 0 321 81" fill="none" xmlns="http://www.w3.org/2000/svg">
<path d="M37.1956 42.7399C14.1798 44.7175 2.67283 49.4483 2.67283 56.9321C2.67283 60.0383 4.65646 63.0058 8.62176 65.8283C11.8052 68.159 15.0893 69.71 18.4721 70.4876C22.6968 64.3446 28.9379 55.0974 37.1956 42.7399ZM70.8397 40.3062C74.0251 40.5899 75.6178 40.9072 75.6178 41.2582C75.6178 41.895 74.9018 42.2103 73.4716 42.2103C74.058 42.2103 72.8543 42.143 69.8644 42.0001C61.2177 57.1108 56.8944 68.2284 56.8944 75.3592C56.8944 77.4062 57.4459 78.4297 58.5529 78.4297C58.9419 78.4297 59.4934 78.3414 60.2095 78.1649C60.9236 77.9883 61.477 77.9001 61.868 77.9001C62.3866 77.9001 62.6479 77.9715 62.6479 78.1144C62.6479 78.5368 61.5893 79.0307 59.4779 79.5961C57.3647 80.1593 55.919 80.4409 55.1372 80.4409C52.2769 80.4409 50.8487 78.8563 50.8487 75.6786C50.8487 69.6049 55.6907 58.3465 65.3785 41.895C63.7529 41.8236 62.0634 41.7878 60.3062 41.7878C54.1947 41.7878 47.8239 42.0358 41.1938 42.5297C34.3682 52.6953 27.6703 62.1232 21.1041 70.805H21.7872C22.631 70.805 23.0548 70.9815 23.0548 71.3346C23.0548 72.0407 21.9827 72.3938 19.8365 72.3938C18.6018 74.0898 17.6574 74.9347 17.0072 74.9347C16.6182 74.9347 16.4227 74.6867 16.4227 74.1949C16.4227 73.6989 16.7149 73.0306 17.3013 72.1836C13.3341 71.5468 9.62809 69.7815 6.18336 66.8875C2.28192 63.4997 0.33313 59.7924 0.33313 55.7678C0.33313 45.4594 13.3341 40.0603 39.3398 39.5643C49.1573 24.3843 54.0651 14.7126 54.0651 10.5451C54.0651 7.15725 51.3364 5.46334 45.8732 5.46334C41.8421 5.46334 37.1956 6.38175 31.9298 8.21647C27.1168 9.84103 22.7935 11.888 18.9598 14.3595C12.1962 18.6657 8.81722 22.9026 8.81722 27.0659C8.81722 29.0436 9.66099 30.7396 11.3524 32.1498C12.3916 33.0682 13.9514 33.9866 16.0337 34.9029C17.7232 35.6826 18.5689 36.1744 18.5689 36.3867C18.5689 36.6683 18.2767 36.8091 17.6903 36.8091C14.9597 36.8091 12.1961 36.0336 9.40166 34.4805C6.0866 32.7151 4.4281 30.4916 4.4281 27.8078C4.4281 22.7954 8.88109 17.5351 17.789 12.0288C21.9478 9.48795 26.5963 7.36742 31.7343 5.67351C37.1956 3.83879 42.1343 2.92036 46.5563 2.92036C54.2276 2.92036 58.0652 5.63988 58.0652 11.0768C58.0652 14.9585 53.0897 24.4557 43.1445 39.5643H45.3855C52.8633 39.5643 59.8843 39.7408 66.4506 40.0939C73.0169 29.0793 79.0626 19.7586 84.5896 12.1339C84.5238 11.6421 84.6883 10.9696 85.0773 10.1226C86.312 8.56954 87.8718 6.48683 89.7586 3.87451C89.9522 3.52144 90.2463 3.06329 90.6353 2.49795C91.7403 1.36727 93.4646 0.801941 95.8043 0.801941C97.1048 0.801941 97.755 1.11928 97.755 1.75607C97.755 1.96834 97.6892 2.14487 97.5596 2.28568C95.7385 4.54493 92.9769 8.03993 89.271 12.7707C82.1183 22.3016 75.9739 31.4815 70.8397 40.3062Z" fill="#FFEDCC"/>
<path d="M94.2425 50.7894C94.2425 51.0731 93.7878 51.214 92.8782 51.214C92.4873 51.214 91.9028 51.1614 91.1229 51.0542C90.3411 50.9491 89.7566 50.8966 89.3657 50.8966C86.4416 50.8966 82.7685 51.3905 78.3465 52.3783C76.0706 56.8967 74.9327 60.2867 74.9327 62.5459C74.9327 65.0195 76.1035 66.2511 78.4452 66.2511C80.3959 66.2511 82.573 65.4041 84.9785 63.7102C86.6022 62.5102 88.3265 60.8877 90.1476 58.8386C91.7074 57.1426 92.5202 56.2978 92.586 56.2978C92.7814 56.2978 92.8782 56.4386 92.8782 56.7202C92.8782 58.3469 91.6745 60.1816 89.269 62.2265C84.067 66.5348 78.6058 68.689 72.8852 68.689C71.3254 68.689 70.3172 68.3338 69.8624 67.6297C69.5373 67.1359 69.3747 66.2175 69.3747 64.8745C69.3747 62.2643 70.4488 58.4856 72.593 53.5447C72.5272 53.4038 72.4962 53.2967 72.4962 53.2252C72.4962 53.1559 72.7885 52.662 73.3729 51.7436C73.7638 50.9681 74.3154 49.8731 75.0314 48.4608C77.8917 43.377 81.0442 40.3422 84.4909 39.3524C85.3346 39.1401 86.0178 39.035 86.5383 39.035C86.9931 39.035 87.2215 39.1401 87.2215 39.3524C87.2215 39.634 86.7977 40.0943 85.9539 40.7289C84.2625 42.0719 82.1821 45.0373 79.7127 49.6251C83.0917 48.9904 86.0178 48.7782 88.4891 48.9904C90.4398 45.9536 91.4151 43.0239 91.4151 40.1993C91.4151 39.4217 91.3339 38.9657 91.1713 38.8228C91.0087 38.682 90.6178 38.6105 90.0005 38.6105C89.3831 38.6105 89.0754 38.4361 89.0754 38.0809C89.0754 37.7278 89.5941 37.4105 90.6352 37.1289C91.6745 36.8472 92.4873 36.7043 93.0736 36.7043C94.8289 36.7043 95.7056 37.5891 95.7056 39.3524C95.7056 40.8361 95.1211 42.6729 93.9503 44.8607C92.7814 47.0485 91.6106 48.4966 90.4398 49.2006C92.9749 49.6945 94.2425 50.2241 94.2425 50.7894Z" fill="#FFEDCC"/>
<path d="M116.574 41.8946C116.574 39.2129 115.729 37.87 114.039 37.87C112.479 37.87 111.212 38.8935 110.237 40.9405C110.689 41.5773 110.92 42.1783 110.92 42.7395C110.92 43.0232 110.852 43.2018 110.724 43.2712C108.837 44.4733 107.31 45.7049 106.14 46.9784C105.619 48.8825 105.36 51.1081 105.36 53.6511C105.36 57.8165 106.01 61.2043 107.31 63.8167C109.455 61.6289 111.535 58.2032 113.552 53.5439C115.566 48.8825 116.574 45.0029 116.574 41.8946ZM106.531 64.5585C104.644 61.3115 103.668 57.0767 103.604 51.8479C101.329 55.8032 100.191 59.0502 100.191 61.5931C100.191 64.6279 101.199 66.1474 103.215 66.1474C104.253 66.1474 105.36 65.6178 106.531 64.5585ZM115.111 35.4342C119.077 35.4342 121.06 37.3047 121.06 41.0477C121.06 44.3661 119.531 48.7081 116.478 54.0735C113.681 59.0144 110.92 62.7217 108.189 65.1932C109.162 66.4647 110.43 67.0994 111.992 67.0994C112.51 67.0994 112.772 67.2423 112.772 67.5218C112.772 67.9464 112.445 68.1586 111.796 68.1586C110.171 68.1586 108.708 67.3474 107.407 65.7228C104.872 67.7719 102.174 68.7954 99.314 68.7954C96.2563 68.7954 94.7294 67.3117 94.7294 64.3463C94.7294 61.3788 95.8345 57.6064 98.0445 53.0143C99.9972 49.2734 102.109 45.9549 104.384 43.061V42.8466C104.319 40.5895 105.619 38.7169 108.286 37.2353C110.494 36.0332 112.772 35.4342 115.111 35.4342Z" fill="#FFEDCC"/>
<path d="M130.909 51.1075V51.4248C138.126 44.0817 143.455 39.4224 146.902 37.4448C147.423 37.1632 148.007 37.0224 148.657 37.0224C149.762 37.0224 150.316 37.3397 150.316 37.9744C150.316 38.8928 148.853 40.2694 145.927 42.1062C140.077 45.8492 135.233 49.5565 131.397 53.2259C132.045 55.5545 132.99 57.9209 134.224 60.3231C135.982 63.6416 137.572 65.2997 139.004 65.2997C140.303 65.2997 141.588 64.0808 142.856 61.6471C144.123 59.2092 144.789 57.9903 144.855 57.9903C145.05 57.9903 145.147 58.2404 145.147 58.7343C145.147 59.0873 145.081 59.4047 144.951 59.6863C144.042 62.5109 143.295 64.4171 142.71 65.4048C141.474 67.3825 139.881 68.3702 137.93 68.3702C135.85 68.3702 133.866 66.7814 131.981 63.6037C130.422 60.9935 129.446 58.3455 129.055 55.6617C127.364 57.7801 125.804 60.1087 124.376 62.6517C124.44 62.864 124.473 63.0741 124.473 63.2864C124.473 64.7008 123.822 66.0942 122.524 67.4707C121.222 68.8473 119.89 69.5366 118.524 69.5366C118.071 69.5366 117.875 69.358 117.939 69.007C118.394 68.2988 119.044 67.2038 119.89 65.7222C121.384 62.4058 123.693 57.4985 126.814 51.0024C126.423 49.1656 126.228 48.0727 126.228 47.7196C126.228 46.5175 127.236 45.6012 129.253 44.9644C134.453 32.1151 139.457 21.6322 144.27 13.5115C144.075 13.0176 143.976 12.5237 143.976 12.0277C143.976 11.7461 144.042 11.4645 144.173 11.1808C145.733 8.28685 146.935 6.27349 147.781 5.14492C148.495 4.29797 149.892 3.87344 151.974 3.87344C153.664 3.87344 154.51 4.22861 154.51 4.93265C154.51 4.8633 153.079 7.12255 150.219 11.7104C145.472 19.478 140.694 28.2313 135.883 37.9744C132.502 44.8257 130.844 49.2013 130.909 51.1075Z" fill="#FFEDCC"/>
<path d="M165.919 60.109C165.919 61.5928 166.08 62.9 166.407 64.0285C166.73 65.1571 167.347 65.7225 168.259 65.7225C169.687 65.7225 171.541 64.6632 173.817 62.5448C174.403 61.9816 174.907 61.5045 175.328 61.1157C175.75 60.729 176.124 60.3927 176.449 60.109C176.774 59.8274 177.068 59.5437 177.329 59.2642C177.457 59.2642 177.523 59.3335 177.523 59.4743C177.587 59.758 177.424 60.2519 177.035 60.956C175.93 62.8642 174.467 64.5582 172.648 66.0398C170.632 67.6665 168.681 68.4756 166.796 68.4756C165.821 68.4756 164.927 68.2276 164.114 67.7358C163.299 67.2419 162.635 66.5169 162.115 65.5648C161.594 64.6128 161.269 63.4296 161.139 62.0152C161.01 60.605 161.172 58.9825 161.627 57.1436C161.952 55.662 162.31 54.1971 162.701 52.7491C163.09 51.3032 163.543 49.9077 164.065 48.5669C163.024 50.12 161.935 51.8139 160.799 53.6507C159.661 55.4854 158.49 57.2676 157.288 58.9973C156.084 60.729 154.85 62.3346 153.582 63.8163C152.315 65.3 151.047 66.4286 149.779 67.2041C148.51 67.9817 147.244 68.3327 145.975 68.2654C144.709 68.194 143.457 67.4878 142.22 66.147C141.702 65.5816 141.44 64.8755 141.44 64.0285C141.44 63.1816 141.62 62.3872 141.976 61.6453C142.335 60.9034 142.84 60.3381 143.488 59.9514C144.138 59.5626 144.854 59.5794 145.634 60.0039C146.089 62.6877 146.886 64.1525 148.024 64.3984C149.16 64.6464 150.428 64.2051 151.827 63.0744C153.224 61.9458 154.687 60.3234 156.214 58.2028C157.741 56.0844 159.173 53.966 160.506 51.8475C161.838 49.7312 162.991 47.825 163.969 46.1311C164.942 44.4351 165.559 43.4473 165.821 43.1636C166.602 41.7534 167.332 40.6227 168.015 39.7758C168.698 38.9288 169.786 38.5043 171.282 38.5043L171.77 38.7166C171.574 38.7166 171.201 39.4416 170.647 40.8876C170.094 42.3356 169.509 44.1346 168.892 46.2887C168.274 48.4429 167.688 50.7547 167.137 53.2262C166.585 55.6977 166.179 57.9906 165.919 60.109Z" fill="#FFEDCC"/>
<path d="M200.438 40.6231C199.854 40.3415 199.236 40.1986 198.586 40.1986C196.181 40.1986 193.969 41.4007 191.954 43.8008C190.199 45.8499 188.38 48.7963 186.495 52.6423C184.608 56.4925 183.242 59.935 182.398 62.9676C182.202 63.535 182.106 63.9953 182.106 64.3463C182.106 64.8402 182.266 65.0881 182.593 65.0881C183.048 65.0881 183.795 64.6636 184.834 63.8167C188.281 61.1329 191.337 57.64 194.003 53.3317C195.368 51.0031 197.514 46.7662 200.438 40.6231ZM200.243 68.7954C197.319 68.7954 195.856 66.5004 195.856 61.9084C195.856 59.0144 196.279 55.5194 197.123 51.4255C195.368 54.6031 192.736 58.0624 189.223 61.8054C184.997 66.3933 181.649 68.6882 179.18 68.6882C177.943 68.6882 177.328 67.7698 177.328 65.933C177.328 61.6289 179.18 56.192 182.886 49.6265C186.851 42.4242 190.686 39.0007 194.392 39.3516C196.473 38.2231 198.098 37.6577 199.269 37.6577C199.66 37.6577 200.99 37.8343 203.267 38.1873C204.177 37.7628 204.924 37.5527 205.51 37.5527C206.225 37.5527 206.583 37.9057 206.583 38.6098C206.583 39.2466 206.225 40.4487 205.51 42.2099C204.794 43.9773 204.243 44.9294 203.852 45.0723C202.94 46.9784 202.145 49.6433 201.464 53.0668C200.781 56.4925 200.438 59.3339 200.438 61.5931C200.438 64.2769 201.154 65.6178 202.584 65.6178C203.949 65.6178 205.607 64.6636 207.56 62.7574C209.509 60.8513 210.451 59.8971 210.387 59.8971C210.515 59.8971 210.581 59.9707 210.581 60.1094C210.581 61.6625 208.955 63.7473 205.706 66.3596C203.689 67.9821 201.868 68.7954 200.243 68.7954Z" fill="#FFEDCC"/>
<path d="M235.35 40.5168C235.35 42.0006 234.829 43.4822 233.79 44.9639C232.749 46.4476 231.609 47.1895 230.378 47.1895C230.117 47.1895 229.987 47.0823 229.987 46.87C229.987 46.7313 230.051 46.5527 230.181 46.3404C230.701 45.1425 230.961 43.7302 230.961 42.1057C230.961 40.0587 230.409 39.0331 229.304 39.0331C228.263 39.0331 227.028 39.5984 225.598 40.7291C223.647 42.2822 221.339 45.6385 218.674 50.7896C215.943 56.155 214.579 60.0767 214.579 62.544C214.579 65.0176 215.75 66.2512 218.089 66.2512C220.04 66.2512 222.184 65.4043 224.526 63.7104C226.15 62.5103 227.905 60.8858 229.792 58.8388C231.352 57.1428 232.195 56.2979 232.327 56.2979C232.457 56.2979 232.522 56.4387 232.522 56.7204C232.522 58.3449 231.319 60.1796 228.915 62.2266C223.711 66.5349 218.25 68.687 212.531 68.687C210.904 68.687 209.898 68.3318 209.507 67.6278C209.182 67.136 209.021 66.2176 209.021 64.8747C209.021 63.7482 209.151 62.6175 209.41 61.4868C211.101 54.9907 213.7 49.5181 217.211 45.0711C221.503 39.6342 226.378 36.9146 231.839 36.9146C234.181 36.9146 235.35 38.1168 235.35 40.5168Z" fill="#FFEDCC"/>
<path d="M258.07 40.5168C258.07 42.0006 257.548 43.4822 256.51 44.9639C255.469 46.4476 254.329 47.1895 253.098 47.1895C252.837 47.1895 252.707 47.0823 252.707 46.87C252.707 46.7313 252.771 46.5527 252.901 46.3404C253.422 45.1425 253.681 43.7302 253.681 42.1057C253.681 40.0587 253.129 39.0331 252.024 39.0331C250.983 39.0331 249.748 39.5984 248.318 40.7291C246.368 42.2822 244.059 45.6385 241.394 50.7896C238.663 56.155 237.299 60.0767 237.299 62.544C237.299 65.0176 238.47 66.2512 240.81 66.2512C242.76 66.2512 244.905 65.4043 247.246 63.7104C248.87 62.5103 250.625 60.8858 252.512 58.8388C254.072 57.1428 254.916 56.2979 255.047 56.2979C255.177 56.2979 255.243 56.4387 255.243 56.7204C255.243 58.3449 254.039 60.1796 251.635 62.2266C246.431 66.5349 240.97 68.687 235.252 68.687C233.624 68.687 232.618 68.3318 232.227 67.6278C231.902 67.136 231.741 66.2176 231.741 64.8747C231.741 63.7482 231.869 62.6175 232.13 61.4868C233.821 54.9907 236.42 49.5181 239.931 45.0711C244.223 39.6342 249.098 36.9146 254.56 36.9146C256.901 36.9146 258.07 38.1168 258.07 40.5168Z" fill="#FFEDCC"/>
<path d="M279.913 68.7949C277.051 68.7949 275.623 66.4999 275.623 61.91C275.623 60.3569 275.818 58.3099 276.207 55.767C276.662 52.7322 276.923 50.6852 276.987 49.626C268.406 61.559 262.523 67.5234 259.336 67.5234C256.93 67.5234 255.728 66.1469 255.728 63.3937C255.728 61.063 256.443 58.2027 257.875 54.8149C258.068 54.3904 259.371 51.7444 261.774 46.8708H261.579C261.19 46.8708 260.996 46.6942 260.996 46.3412C260.996 46.2025 261.027 46.0238 261.091 45.8116C262.978 42.1421 264.05 40.1645 264.309 39.8829C265.544 38.3991 267.495 37.6572 270.161 37.6572C270.487 37.6572 270.649 37.8695 270.649 38.2919C270.649 38.8573 268.925 42.1064 265.48 48.0351C264.505 49.7311 263.466 52.0261 262.361 54.92C261.124 58.2406 260.508 60.607 260.508 62.0151C260.508 63.0049 260.799 63.4988 261.385 63.4988C262.295 63.4988 263.692 62.6182 265.579 60.8508C269.999 56.8283 274.289 51.2148 278.45 44.0126L278.744 42.8462C279.263 40.7298 280.076 39.2839 281.181 38.5042C282.288 37.7287 283.718 37.3399 285.471 37.3399C286.51 37.3399 287.033 37.6215 287.033 38.1869C287.033 38.6807 286.479 39.6349 285.374 41.0472C284.072 42.6717 283.327 43.6595 283.131 44.0126C282.352 45.6371 281.636 48.3545 280.987 52.1669C280.401 55.6997 280.109 58.5936 280.109 60.8508C280.109 64.0284 280.854 65.6173 282.352 65.6173C283.652 65.6173 285.291 64.6631 287.277 62.757C289.258 60.8508 290.216 59.8987 290.153 59.8987C290.216 59.8987 290.251 59.9702 290.251 60.1089C290.251 61.662 288.658 63.7489 285.471 66.3591C283.391 67.9816 281.539 68.7949 279.913 68.7949Z" fill="#FFEDCC"/>
<path d="M297.175 51.1075V51.4248C304.392 44.0817 309.722 39.4224 313.168 37.4448C313.687 37.1632 314.273 37.0224 314.924 37.0224C316.027 37.0224 316.58 37.3397 316.58 37.9744C316.58 38.8928 315.117 40.2694 312.193 42.1062C306.341 45.8492 301.497 49.5565 297.663 53.2259C298.311 55.5545 299.254 57.9209 300.491 60.3231C302.246 63.6416 303.839 65.2997 305.269 65.2997C306.569 65.2997 307.854 64.0808 309.122 61.6471C310.389 59.2092 311.055 57.9903 311.121 57.9903C311.316 57.9903 311.411 58.2404 311.411 58.7343C311.411 59.0873 311.347 59.4047 311.218 59.6863C310.306 62.5109 309.559 64.4171 308.975 65.4048C307.738 67.3825 306.147 68.3702 304.197 68.3702C302.116 68.3702 300.131 66.7814 298.248 63.6037C296.688 60.9935 295.712 58.3455 295.322 55.6617C293.63 57.7801 292.07 60.1087 290.64 62.6517C290.704 62.864 290.739 63.0741 290.739 63.2864C290.739 64.7008 290.089 66.0942 288.788 67.4707C287.486 68.8473 286.156 69.5366 284.792 69.5366C284.335 69.5366 284.142 69.358 284.206 69.007C284.66 68.2988 285.309 67.2038 286.156 65.7222C287.65 62.4058 289.959 57.4985 293.079 51.0024C292.69 49.1656 292.494 48.0727 292.494 47.7196C292.494 46.5175 293.502 45.6012 295.517 44.9644C300.717 32.1151 305.723 21.6322 310.534 13.5115C310.341 13.0176 310.242 12.5237 310.242 12.0277C310.242 11.7461 310.306 11.4645 310.438 11.1808C311.997 8.28685 313.199 6.27349 314.047 5.14492C314.761 4.29797 316.158 3.87344 318.241 3.87344C319.928 3.87344 320.774 4.22861 320.774 4.93265C320.774 4.8633 319.344 7.12255 316.485 11.7104C311.736 19.478 306.96 28.2313 302.147 37.9744C298.766 44.8257 297.11 49.2013 297.175 51.1075Z" fill="#FFEDCC"/>
</svg>
