<svg width="821" height="199" viewBox="0 0 821 199" fill="none" xmlns="http://www.w3.org/2000/svg">
<path d="M94.8387 104.449C35.9806 109.366 6.55399 121.128 6.55399 139.735C6.55399 147.458 11.6267 154.836 21.7671 161.854C29.9082 167.649 38.3066 171.505 46.9574 173.438C57.761 158.165 73.7215 135.174 94.8387 104.449ZM180.877 98.3982C189.023 99.1036 193.096 99.8927 193.096 100.765C193.096 102.349 191.265 103.132 187.607 103.132C189.107 103.132 186.029 102.965 178.382 102.61C156.27 140.179 145.214 167.821 145.214 185.55C145.214 190.64 146.625 193.184 149.456 193.184C150.45 193.184 151.861 192.965 153.692 192.526C155.518 192.087 156.933 191.868 157.933 191.868C159.26 191.868 159.928 192.045 159.928 192.401C159.928 193.451 157.221 194.679 151.821 196.085C146.417 197.485 142.72 198.185 140.721 198.185C133.406 198.185 129.754 194.245 129.754 186.345C129.754 171.244 142.136 143.252 166.911 102.349C162.753 102.171 158.433 102.082 153.939 102.082C138.311 102.082 122.018 102.699 105.063 103.927C87.6083 129.201 70.4799 152.642 53.688 174.227H55.435C57.5928 174.227 58.6766 174.666 58.6766 175.544C58.6766 177.3 55.9348 178.178 50.4464 178.178C47.289 182.394 44.8739 184.495 43.211 184.495C42.2163 184.495 41.7164 183.878 41.7164 182.656C41.7164 181.422 42.4637 179.761 43.9633 177.655C33.8179 176.072 24.3406 171.683 15.5314 164.487C5.5543 156.064 0.570679 146.847 0.570679 136.84C0.570679 111.211 33.8179 97.7869 100.322 96.5537C125.428 58.8116 137.979 34.765 137.979 24.4033C137.979 15.9802 131.001 11.7686 117.03 11.7686C106.721 11.7686 94.8387 14.0521 81.3726 18.6137C69.0645 22.6528 58.0085 27.7422 48.2045 33.8871C30.9079 44.5937 22.267 55.1278 22.267 65.4791C22.267 70.396 24.4247 74.6128 28.7501 78.119C31.4077 80.4024 35.3966 82.6859 40.7217 84.9641C45.0422 86.9027 47.2049 88.1254 47.2049 88.6531C47.2049 89.3533 46.4576 89.7034 44.958 89.7034C37.975 89.7034 30.9079 87.7753 23.7616 83.9138C15.284 79.5246 11.0427 73.9963 11.0427 67.3236C11.0427 54.8613 22.4303 41.7825 45.2104 28.0923C55.8458 21.775 67.7332 16.5027 80.8727 12.2912C94.8387 7.72949 107.468 5.44603 118.777 5.44603C138.395 5.44603 148.208 12.2076 148.208 25.7253C148.208 35.3764 135.485 58.9893 110.052 96.5537H115.783C134.906 96.5537 152.86 96.9926 169.652 97.8705C186.444 70.4849 201.905 47.3109 216.039 28.3536C215.871 27.1309 216.291 25.4588 217.286 23.353C220.444 19.4915 224.433 14.3133 229.258 7.81831C229.753 6.94046 230.505 5.80136 231.5 4.39577C234.326 1.58458 238.735 0.178986 244.718 0.178986C248.044 0.178986 249.707 0.968002 249.707 2.55125C249.707 3.07899 249.539 3.51791 249.207 3.86801C244.55 9.48517 237.488 18.1748 228.011 29.9369C209.719 53.6334 194.006 76.4574 180.877 98.3982Z" fill="#FFEDCC"/>
<path d="M240.724 124.462C240.724 125.167 239.561 125.517 237.235 125.517C236.236 125.517 234.741 125.387 232.747 125.12C230.747 124.859 229.253 124.728 228.253 124.728C220.775 124.728 211.382 125.956 200.074 128.412C194.254 139.646 191.344 148.075 191.344 153.692C191.344 159.842 194.338 162.904 200.326 162.904C205.315 162.904 210.882 160.798 217.034 156.587C221.186 153.603 225.595 149.569 230.252 144.475C234.241 140.258 236.32 138.157 236.488 138.157C236.988 138.157 237.235 138.507 237.235 139.207C237.235 143.252 234.157 147.813 228.006 152.898C214.703 163.609 200.737 168.965 186.108 168.965C182.119 168.965 179.54 168.082 178.377 166.332C177.546 165.104 177.13 162.82 177.13 159.481C177.13 152.992 179.877 143.597 185.36 131.312C185.192 130.962 185.113 130.696 185.113 130.518C185.113 130.345 185.86 129.117 187.355 126.834C188.354 124.906 189.765 122.184 191.596 118.672C198.911 106.032 206.972 98.487 215.787 96.0259C217.944 95.4981 219.691 95.2369 221.023 95.2369C222.186 95.2369 222.77 95.4981 222.77 96.0259C222.77 96.7261 221.686 97.8704 219.528 99.4484C215.203 102.787 209.882 110.16 203.568 121.567C212.208 119.989 219.691 119.461 226.011 119.989C231 112.438 233.494 105.154 233.494 98.1317C233.494 96.1983 233.286 95.0644 232.87 94.7091C232.455 94.359 231.455 94.1814 229.876 94.1814C228.298 94.1814 227.511 93.7477 227.511 92.8646C227.511 91.9868 228.837 91.1978 231.5 90.4976C234.157 89.7974 236.236 89.4421 237.735 89.4421C242.224 89.4421 244.466 91.6419 244.466 96.0259C244.466 99.7149 242.971 104.282 239.977 109.721C236.988 115.161 233.994 118.761 231 120.511C237.483 121.739 240.724 123.056 240.724 124.462Z" fill="#FFEDCC"/>
<path d="M297.834 102.346C297.834 95.6787 295.671 92.3398 291.35 92.3398C287.362 92.3398 284.12 94.8845 281.626 99.9739C282.784 101.557 283.373 103.052 283.373 104.447C283.373 105.152 283.2 105.596 282.873 105.769C278.048 108.758 274.143 111.82 271.149 114.986C269.817 119.72 269.154 125.254 269.154 131.576C269.154 141.933 270.817 150.356 274.143 156.851C279.626 151.411 284.946 142.894 290.103 131.31C295.255 119.72 297.834 110.074 297.834 102.346ZM272.148 158.695C267.323 150.622 264.829 140.093 264.666 127.093C258.846 136.927 255.936 145 255.936 151.323C255.936 158.868 258.514 162.646 263.671 162.646C266.324 162.646 269.154 161.329 272.148 158.695ZM294.092 86.2837C304.233 86.2837 309.305 90.9342 309.305 100.24C309.305 108.491 305.396 119.286 297.586 132.627C290.435 144.911 283.373 154.128 276.39 160.273C278.879 163.435 282.121 165.013 286.114 165.013C287.441 165.013 288.109 165.368 288.109 166.063C288.109 167.118 287.273 167.646 285.615 167.646C281.457 167.646 277.716 165.629 274.39 161.59C267.907 166.685 261.008 169.229 253.694 169.229C245.874 169.229 241.97 165.54 241.97 158.168C241.97 150.79 244.795 141.41 250.447 129.993C255.441 120.692 260.84 112.441 266.66 105.246V104.713C266.492 99.1012 269.817 94.4455 276.637 90.7617C282.284 87.7729 288.109 86.2837 294.092 86.2837Z" fill="#FFEDCC"/>
<path d="M334.492 125.253V126.042C352.947 107.785 366.576 96.2005 375.39 91.2835C376.722 90.5833 378.216 90.2332 379.879 90.2332C382.705 90.2332 384.12 91.0222 384.12 92.6003C384.12 94.8837 380.379 98.3062 372.896 102.873C357.935 112.179 345.548 121.397 335.739 130.52C337.397 136.31 339.812 142.193 342.97 148.166C347.463 156.416 351.531 160.539 355.194 160.539C358.514 160.539 361.8 157.508 365.042 151.458C368.284 145.396 369.986 142.366 370.154 142.366C370.654 142.366 370.902 142.987 370.902 144.215C370.902 145.093 370.733 145.882 370.402 146.582C368.076 153.605 366.165 158.345 364.671 160.8C361.508 165.717 357.435 168.173 352.447 168.173C347.127 168.173 342.054 164.223 337.234 156.322C333.245 149.833 330.751 143.249 329.751 136.576C325.425 141.843 321.437 147.633 317.784 153.955C317.948 154.483 318.032 155.006 318.032 155.533C318.032 159.05 316.369 162.514 313.048 165.937C309.717 169.359 306.313 171.073 302.819 171.073C301.661 171.073 301.161 170.629 301.324 169.756C302.487 167.996 304.15 165.273 306.313 161.589C310.133 153.344 316.037 141.143 324.02 124.992C323.02 120.425 322.52 117.708 322.52 116.83C322.52 113.841 325.099 111.563 330.256 109.979C343.554 78.0322 356.352 51.9686 368.66 31.7782C368.16 30.5502 367.907 29.3223 367.907 28.0892C367.907 27.389 368.076 26.6888 368.412 25.9834C372.401 18.7882 375.474 13.7824 377.637 10.9764C379.463 8.87064 383.036 7.81514 388.362 7.81514C392.682 7.81514 394.845 8.6982 394.845 10.4487C394.845 10.2762 391.187 15.8934 383.873 27.3001C371.733 46.6127 359.514 68.3759 347.211 92.6003C338.565 109.635 334.324 120.514 334.492 125.253Z" fill="#FFEDCC"/>
<path d="M424.023 147.634C424.023 151.323 424.433 154.573 425.27 157.379C426.096 160.185 427.675 161.59 430.006 161.59C433.658 161.59 438.399 158.957 444.219 153.69C445.719 152.289 447.006 151.103 448.085 150.137C449.163 149.175 450.119 148.339 450.95 147.634C451.781 146.934 452.534 146.228 453.202 145.533C453.528 145.533 453.697 145.706 453.697 146.056C453.86 146.761 453.444 147.989 452.45 149.74C449.624 154.484 445.882 158.696 441.23 162.379C436.073 166.424 431.085 168.436 426.265 168.436C423.77 168.436 421.484 167.819 419.405 166.596C417.322 165.368 415.624 163.566 414.293 161.199C412.962 158.832 412.13 155.89 411.799 152.373C411.467 148.867 411.883 144.833 413.046 140.261C413.877 136.577 414.793 132.935 415.793 129.335C416.787 125.74 417.945 122.27 419.282 118.937C416.619 122.798 413.833 127.01 410.928 131.577C408.018 136.138 405.024 140.569 401.95 144.87C398.872 149.175 395.715 153.167 392.473 156.851C389.231 160.54 385.99 163.346 382.748 165.274C379.502 167.208 376.265 168.08 373.019 167.913C369.782 167.735 366.58 165.98 363.418 162.646C362.091 161.24 361.423 159.485 361.423 157.379C361.423 155.273 361.883 153.298 362.794 151.453C363.71 149.609 365.001 148.203 366.659 147.242C368.322 146.275 370.153 146.317 372.148 147.373C373.311 154.045 375.35 157.687 378.26 158.299C381.165 158.915 384.406 157.818 387.984 155.007C391.557 152.201 395.299 148.167 399.204 142.894C403.108 137.627 406.771 132.36 410.18 127.093C413.585 121.831 416.535 117.092 419.034 112.881C421.523 108.664 423.102 106.208 423.77 105.502C425.77 101.996 427.635 99.1852 429.382 97.0794C431.129 94.9736 433.911 93.9181 437.736 93.9181L438.983 94.4458C438.484 94.4458 437.528 96.2486 436.113 99.8435C434.698 103.444 433.203 107.917 431.624 113.272C430.046 118.628 428.546 124.376 427.136 130.521C425.725 136.666 424.686 142.367 424.023 147.634Z" fill="#FFEDCC"/>
<path d="M512.298 99.1849C510.803 98.4847 509.224 98.1294 507.561 98.1294C501.41 98.1294 495.753 101.118 490.601 107.085C486.113 112.18 481.46 119.506 476.64 129.068C471.815 138.641 468.321 147.2 466.163 154.74C465.663 156.151 465.416 157.295 465.416 158.168C465.416 159.396 465.827 160.012 466.663 160.012C467.826 160.012 469.736 158.957 472.394 156.851C481.208 150.178 489.023 141.494 495.842 130.782C499.331 124.992 504.82 114.458 512.298 99.1849ZM511.798 169.229C504.32 169.229 500.578 163.524 500.578 152.106C500.578 144.911 501.662 136.222 503.82 126.043C499.331 133.943 492.601 142.544 483.618 151.85C472.81 163.257 464.248 168.963 457.933 168.963C454.771 168.963 453.197 166.68 453.197 162.113C453.197 151.411 457.933 137.894 467.41 121.57C477.551 103.663 487.36 95.151 496.837 96.0236C502.157 93.2176 506.314 91.812 509.308 91.812C510.308 91.812 513.708 92.2509 519.533 93.1288C521.859 92.0733 523.769 91.5508 525.269 91.5508C527.095 91.5508 528.011 92.4286 528.011 94.1791C528.011 95.7623 527.095 98.7512 525.269 103.13C523.438 107.524 522.027 109.891 521.028 110.247C518.697 114.986 516.663 121.612 514.92 130.124C513.174 138.641 512.298 145.705 512.298 151.323C512.298 157.995 514.129 161.329 517.786 161.329C521.275 161.329 525.516 158.957 530.51 154.217C535.493 149.478 537.904 147.106 537.74 147.106C538.067 147.106 538.235 147.289 538.235 147.633C538.235 151.495 534.078 156.678 525.769 163.173C520.612 167.207 515.955 169.229 511.798 169.229Z" fill="#FFEDCC"/>
<path d="M601.577 98.922C601.577 102.611 600.246 106.295 597.588 109.979C594.925 113.668 592.011 115.512 588.863 115.512C588.195 115.512 587.863 115.246 587.863 114.718C587.863 114.373 588.027 113.929 588.358 113.401C589.689 110.423 590.353 106.911 590.353 102.872C590.353 97.7829 588.942 95.233 586.116 95.233C583.454 95.233 580.296 96.6386 576.639 99.4498C571.65 103.311 565.746 111.656 558.932 124.463C551.949 137.803 548.46 147.554 548.46 153.688C548.46 159.838 551.454 162.905 557.437 162.905C562.426 162.905 567.909 160.8 573.897 156.588C578.049 153.604 582.538 149.565 587.363 144.476C591.352 140.259 593.51 138.159 593.847 138.159C594.178 138.159 594.346 138.509 594.346 139.209C594.346 143.248 591.268 147.81 585.122 152.899C571.814 163.611 557.848 168.961 543.224 168.961C539.061 168.961 536.488 168.078 535.488 166.328C534.657 165.105 534.246 162.822 534.246 159.483C534.246 156.682 534.578 153.871 535.241 151.06C539.566 134.908 546.213 121.302 555.19 110.245C566.167 96.7274 578.633 89.9659 592.599 89.9659C598.588 89.9659 601.577 92.9548 601.577 98.922Z" fill="#FFEDCC"/>
<path d="M659.679 98.922C659.679 102.611 658.343 106.295 655.69 109.979C653.028 113.668 650.113 115.512 646.965 115.512C646.297 115.512 645.966 115.246 645.966 114.718C645.966 114.373 646.129 113.929 646.46 113.401C647.792 110.423 648.455 106.911 648.455 102.872C648.455 97.7829 647.044 95.233 644.219 95.233C641.556 95.233 638.399 96.6386 634.741 99.4498C629.753 103.311 623.849 111.656 617.034 124.463C610.051 137.803 606.562 147.554 606.562 153.688C606.562 159.838 609.556 162.905 615.539 162.905C620.528 162.905 626.011 160.8 632 156.588C636.152 153.604 640.64 149.565 645.466 144.476C649.455 140.259 651.612 138.159 651.949 138.159C652.28 138.159 652.449 138.509 652.449 139.209C652.449 143.248 649.37 147.81 643.224 152.899C629.916 163.611 615.95 168.961 601.326 168.961C597.164 168.961 594.59 168.078 593.591 166.328C592.759 165.105 592.348 162.822 592.348 159.483C592.348 156.682 592.675 153.871 593.343 151.06C597.669 134.908 604.315 121.302 613.292 110.245C624.269 96.7274 636.736 89.9659 650.702 89.9659C656.69 89.9659 659.679 92.9548 659.679 98.922Z" fill="#FFEDCC"/>
<path d="M715.538 169.229C708.219 169.229 704.566 163.523 704.566 152.111C704.566 148.249 705.066 143.16 706.061 136.837C707.224 129.292 707.892 124.202 708.055 121.569C686.112 151.238 671.067 166.067 662.916 166.067C656.764 166.067 653.691 162.645 653.691 155.8C653.691 150.005 655.517 142.893 659.179 134.47C659.674 133.415 663.005 126.836 669.152 114.719H668.652C667.657 114.719 667.162 114.28 667.162 113.402C667.162 113.057 667.241 112.613 667.405 112.085C672.23 102.962 674.972 98.0448 675.635 97.3446C678.792 93.6556 683.781 91.811 690.6 91.811C691.432 91.811 691.847 92.3388 691.847 93.3891C691.847 94.7947 687.438 102.873 678.629 117.613C676.135 121.83 673.477 127.536 670.651 134.731C667.489 142.987 665.915 148.871 665.915 152.372C665.915 154.833 666.657 156.061 668.157 156.061C670.483 156.061 674.056 153.871 678.881 149.477C690.185 139.476 701.157 125.519 711.797 107.612L712.549 104.712C713.875 99.4504 715.954 95.8554 718.78 93.9168C721.611 91.9887 725.268 91.022 729.752 91.022C732.409 91.022 733.745 91.7222 733.745 93.1278C733.745 94.3557 732.33 96.728 729.504 100.239C726.174 104.279 724.268 106.734 723.768 107.612C721.774 111.651 719.943 118.408 718.285 127.886C716.785 136.67 716.038 143.865 716.038 149.477C716.038 157.378 717.943 161.328 721.774 161.328C725.1 161.328 729.291 158.956 734.369 154.216C739.437 149.477 741.887 147.11 741.723 147.11C741.887 147.11 741.976 147.288 741.976 147.633C741.976 151.494 737.903 156.683 729.752 163.172C724.432 167.206 719.695 169.229 715.538 169.229Z" fill="#FFEDCC"/>
<path d="M759.683 125.253V126.042C778.138 107.785 791.767 96.2005 800.582 91.2835C801.908 90.5833 803.407 90.2332 805.07 90.2332C807.891 90.2332 809.307 91.0222 809.307 92.6003C809.307 94.8837 805.565 98.3062 798.087 102.873C783.122 112.179 770.734 121.397 760.93 130.52C762.588 136.31 764.998 142.193 768.161 148.166C772.65 156.416 776.723 160.539 780.38 160.539C783.706 160.539 786.992 157.508 790.233 151.458C793.475 145.396 795.177 142.366 795.346 142.366C795.845 142.366 796.088 142.987 796.088 144.215C796.088 145.093 795.925 145.882 795.593 146.582C793.262 153.605 791.352 158.345 789.857 160.8C786.695 165.717 782.627 168.173 777.638 168.173C772.318 168.173 767.24 164.223 762.425 156.322C758.436 149.833 755.942 143.249 754.942 136.576C750.617 141.843 746.628 147.633 742.971 153.955C743.134 154.483 743.223 155.006 743.223 155.533C743.223 159.05 741.56 162.514 738.234 165.937C734.904 169.359 731.504 171.073 728.015 171.073C726.847 171.073 726.352 170.629 726.515 169.756C727.678 167.996 729.336 165.273 731.504 161.589C735.324 153.344 741.229 141.143 749.206 124.992C748.212 120.425 747.712 117.708 747.712 116.83C747.712 113.841 750.29 111.563 755.442 109.979C768.74 78.0322 781.543 51.9686 793.846 31.7782C793.351 30.5502 793.099 29.3223 793.099 28.0892C793.099 27.389 793.262 26.6888 793.599 25.9834C797.587 18.7882 800.661 13.7824 802.828 10.9764C804.655 8.87064 808.228 7.81514 813.553 7.81514C817.868 7.81514 820.031 8.6982 820.031 10.4487C820.031 10.2762 816.374 15.8934 809.064 27.3001C796.919 46.6127 784.705 68.3759 772.397 92.6003C763.751 109.635 759.515 120.514 759.683 125.253Z" fill="#FFEDCC"/>
</svg>
