<svg width="982" height="305" viewBox="0 0 982 305" fill="none" xmlns="http://www.w3.org/2000/svg">
<g filter="url(#filter0_d_1_239)">
<mask id="mask0_1_239" style="mask-type:luminance" maskUnits="userSpaceOnUse" x="0" y="0" width="982" height="305">
<path d="M0 304.57H982V0.000244141H0V304.57Z" fill="white"/>
</mask>
<g mask="url(#mask0_1_239)">
<path d="M171.839 163.449C112.981 168.366 83.554 180.128 83.554 198.735C83.554 206.458 88.6267 213.836 98.7671 220.854C106.908 226.649 115.307 230.505 123.957 232.438C134.761 217.165 150.721 194.174 171.839 163.449ZM257.877 157.398C266.023 158.104 270.096 158.893 270.096 159.765C270.096 161.349 268.265 162.132 264.607 162.132C266.107 162.132 263.029 161.965 255.382 161.61C233.27 199.179 222.214 226.821 222.214 244.55C222.214 249.64 223.625 252.184 226.456 252.184C227.45 252.184 228.861 251.965 230.692 251.526C232.518 251.087 233.933 250.868 234.933 250.868C236.26 250.868 236.928 251.045 236.928 251.401C236.928 252.451 234.221 253.679 228.821 255.085C223.417 256.485 219.72 257.185 217.721 257.185C210.406 257.185 206.754 253.245 206.754 245.345C206.754 230.244 219.136 202.252 243.911 161.349C239.753 161.171 235.433 161.082 230.939 161.082C215.311 161.082 199.018 161.699 182.063 162.927C164.608 188.201 147.48 211.642 130.688 233.227H132.435C134.593 233.227 135.677 233.666 135.677 234.544C135.677 236.3 132.935 237.178 127.446 237.178C124.289 241.394 121.874 243.495 120.211 243.495C119.216 243.495 118.716 242.878 118.716 241.656C118.716 240.422 119.464 238.761 120.963 236.655C110.818 235.072 101.341 230.683 92.5314 223.487C82.5543 215.064 77.5707 205.847 77.5707 195.84C77.5707 170.211 110.818 156.787 177.322 155.554C202.428 117.812 214.979 93.765 214.979 83.4033C214.979 74.9802 208.001 70.7686 194.03 70.7686C183.721 70.7686 171.839 73.0521 158.373 77.6137C146.064 81.6528 135.008 86.7422 125.205 92.8871C107.908 103.594 99.267 114.128 99.267 124.479C99.267 129.396 101.425 133.613 105.75 137.119C108.408 139.402 112.397 141.686 117.722 143.964C122.042 145.903 124.205 147.125 124.205 147.653C124.205 148.353 123.458 148.703 121.958 148.703C114.975 148.703 107.908 146.775 100.762 142.914C92.284 138.525 88.0427 132.996 88.0427 126.324C88.0427 113.861 99.4303 100.783 122.21 87.0923C132.846 80.775 144.733 75.5027 157.873 71.2912C171.839 66.7295 184.468 64.446 195.777 64.446C215.395 64.446 225.208 71.2076 225.208 84.7253C225.208 94.3764 212.485 117.989 187.052 155.554H192.783C211.906 155.554 229.86 155.993 246.652 156.87C263.444 129.485 278.905 106.311 293.039 87.3536C292.871 86.1309 293.291 84.4588 294.286 82.353C297.444 78.4915 301.433 73.3133 306.258 66.8183C306.753 65.9405 307.505 64.8014 308.5 63.3958C311.326 60.5846 315.735 59.179 321.718 59.179C325.044 59.179 326.707 59.968 326.707 61.5513C326.707 62.079 326.539 62.5179 326.207 62.868C321.55 68.4852 314.488 77.1748 305.011 88.9369C286.719 112.633 271.006 135.457 257.877 157.398Z" fill="#FFEDCC"/>
<path d="M317.724 183.462C317.724 184.167 316.561 184.517 314.235 184.517C313.236 184.517 311.741 184.387 309.747 184.12C307.747 183.859 306.253 183.728 305.253 183.728C297.775 183.728 288.382 184.956 277.074 187.412C271.254 198.646 268.344 207.075 268.344 212.692C268.344 218.842 271.338 221.904 277.326 221.904C282.315 221.904 287.882 219.798 294.034 215.587C298.186 212.603 302.595 208.569 307.252 203.475C311.241 199.258 313.32 197.157 313.488 197.157C313.988 197.157 314.235 197.507 314.235 198.207C314.235 202.252 311.157 206.813 305.006 211.898C291.703 222.609 277.737 227.965 263.108 227.965C259.119 227.965 256.54 227.082 255.377 225.332C254.546 224.104 254.13 221.82 254.13 218.481C254.13 211.992 256.877 202.597 262.36 190.312C262.192 189.962 262.113 189.696 262.113 189.518C262.113 189.345 262.86 188.117 264.355 185.834C265.354 183.906 266.765 181.184 268.596 177.672C275.911 165.032 283.972 157.487 292.787 155.026C294.944 154.498 296.691 154.237 298.023 154.237C299.186 154.237 299.77 154.498 299.77 155.026C299.77 155.726 298.686 156.87 296.528 158.448C292.203 161.787 286.882 169.16 280.568 180.567C289.208 178.989 296.691 178.461 303.011 178.989C308 171.438 310.494 164.154 310.494 157.132C310.494 155.198 310.286 154.064 309.87 153.709C309.455 153.359 308.455 153.181 306.876 153.181C305.298 153.181 304.511 152.748 304.511 151.865C304.511 150.987 305.837 150.198 308.5 149.498C311.157 148.797 313.236 148.442 314.735 148.442C319.224 148.442 321.466 150.642 321.466 155.026C321.466 158.715 319.971 163.282 316.977 168.721C313.988 174.161 310.994 177.761 308 179.511C314.483 180.739 317.724 182.056 317.724 183.462Z" fill="#FFEDCC"/>
<path d="M374.834 161.346C374.834 154.679 372.671 151.34 368.35 151.34C364.362 151.34 361.12 153.884 358.626 158.974C359.784 160.557 360.373 162.052 360.373 163.447C360.373 164.152 360.2 164.596 359.873 164.769C355.048 167.758 351.143 170.82 348.149 173.986C346.817 178.72 346.154 184.254 346.154 190.576C346.154 200.933 347.817 209.356 351.143 215.851C356.626 210.411 361.946 201.894 367.103 190.31C372.255 178.72 374.834 169.074 374.834 161.346ZM349.148 217.695C344.323 209.622 341.829 199.093 341.666 186.093C335.846 195.927 332.936 204 332.936 210.323C332.936 217.868 335.514 221.646 340.671 221.646C343.324 221.646 346.154 220.329 349.148 217.695ZM371.092 145.284C381.233 145.284 386.305 149.934 386.305 159.24C386.305 167.491 382.396 178.286 374.586 191.627C367.435 203.911 360.373 213.128 353.39 219.273C355.879 222.435 359.121 224.013 363.114 224.013C364.441 224.013 365.109 224.368 365.109 225.063C365.109 226.118 364.273 226.646 362.615 226.646C358.457 226.646 354.716 224.629 351.39 220.59C344.907 225.685 338.008 228.229 330.694 228.229C322.874 228.229 318.97 224.54 318.97 217.168C318.97 209.79 321.795 200.41 327.447 188.993C332.441 179.692 337.84 171.441 343.66 164.246V163.713C343.492 158.101 346.817 153.446 353.637 149.762C359.284 146.773 365.109 145.284 371.092 145.284Z" fill="#FFEDCC"/>
<path d="M411.492 184.253V185.042C429.947 166.785 443.576 155.2 452.39 150.283C453.722 149.583 455.216 149.233 456.879 149.233C459.705 149.233 461.12 150.022 461.12 151.6C461.12 153.884 457.379 157.306 449.896 161.873C434.935 171.179 422.548 180.397 412.739 189.52C414.397 195.31 416.812 201.193 419.97 207.166C424.463 215.416 428.531 219.539 432.194 219.539C435.514 219.539 438.8 216.508 442.042 210.458C445.284 204.396 446.986 201.366 447.154 201.366C447.654 201.366 447.902 201.987 447.902 203.215C447.902 204.093 447.733 204.882 447.402 205.582C445.076 212.605 443.165 217.345 441.671 219.8C438.508 224.717 434.435 227.173 429.447 227.173C424.127 227.173 419.054 223.223 414.234 215.322C410.245 208.833 407.751 202.249 406.751 195.576C402.425 200.843 398.437 206.633 394.784 212.955C394.948 213.483 395.032 214.006 395.032 214.533C395.032 218.05 393.369 221.514 390.048 224.937C386.717 228.359 383.313 230.073 379.819 230.073C378.661 230.073 378.161 229.629 378.324 228.756C379.487 226.996 381.15 224.273 383.313 220.589C387.133 212.344 393.037 200.143 401.02 183.992C400.02 179.425 399.52 176.708 399.52 175.83C399.52 172.841 402.099 170.563 407.256 168.979C420.554 137.032 433.352 110.969 445.66 90.7782C445.16 89.5502 444.907 88.3223 444.907 87.0892C444.907 86.389 445.076 85.6888 445.412 84.9834C449.401 77.7882 452.474 72.7824 454.637 69.9764C456.463 67.8706 460.036 66.8151 465.362 66.8151C469.682 66.8151 471.845 67.6982 471.845 69.4487C471.845 69.2762 468.187 74.8934 460.873 86.3001C448.733 105.613 436.514 127.376 424.211 151.6C415.565 168.635 411.324 179.514 411.492 184.253Z" fill="#FFEDCC"/>
<path d="M501.023 206.634C501.023 210.323 501.433 213.573 502.27 216.379C503.096 219.185 504.675 220.59 507.006 220.59C510.658 220.59 515.399 217.957 521.219 212.69C522.719 211.289 524.006 210.103 525.085 209.137C526.163 208.175 527.119 207.339 527.95 206.634C528.781 205.934 529.534 205.228 530.202 204.533C530.528 204.533 530.697 204.706 530.697 205.056C530.86 205.761 530.444 206.989 529.45 208.74C526.624 213.484 522.882 217.696 518.23 221.379C513.073 225.424 508.085 227.436 503.265 227.436C500.77 227.436 498.484 226.819 496.405 225.596C494.322 224.368 492.624 222.566 491.293 220.199C489.962 217.832 489.13 214.89 488.799 211.373C488.467 207.867 488.883 203.833 490.046 199.261C490.877 195.577 491.793 191.935 492.793 188.335C493.787 184.74 494.945 181.27 496.282 177.937C493.619 181.798 490.833 186.01 487.928 190.577C485.018 195.138 482.024 199.569 478.95 203.87C475.872 208.175 472.715 212.167 469.473 215.851C466.231 219.54 462.99 222.346 459.748 224.274C456.502 226.208 453.265 227.08 450.019 226.913C446.782 226.735 443.58 224.98 440.418 221.646C439.091 220.24 438.423 218.485 438.423 216.379C438.423 214.273 438.883 212.298 439.794 210.453C440.71 208.609 442.001 207.203 443.659 206.242C445.322 205.275 447.153 205.317 449.148 206.373C450.311 213.045 452.35 216.687 455.26 217.299C458.165 217.915 461.406 216.818 464.984 214.007C468.557 211.201 472.299 207.167 476.204 201.894C480.108 196.627 483.771 191.36 487.18 186.093C490.585 180.831 493.535 176.092 496.034 171.881C498.523 167.664 500.102 165.208 500.77 164.502C502.77 160.996 504.635 158.185 506.382 156.079C508.129 153.974 510.911 152.918 514.736 152.918L515.983 153.446C515.484 153.446 514.528 155.249 513.113 158.844C511.698 162.444 510.203 166.917 508.624 172.272C507.046 177.628 505.546 183.376 504.136 189.521C502.725 195.666 501.686 201.367 501.023 206.634Z" fill="#FFEDCC"/>
<path d="M589.298 158.185C587.803 157.485 586.224 157.129 584.561 157.129C578.41 157.129 572.753 160.118 567.601 166.085C563.113 171.18 558.46 178.506 553.64 188.068C548.815 197.641 545.321 206.2 543.163 213.74C542.663 215.151 542.416 216.295 542.416 217.168C542.416 218.396 542.827 219.012 543.663 219.012C544.826 219.012 546.736 217.957 549.394 215.851C558.208 209.178 566.023 200.494 572.842 189.782C576.331 183.992 581.82 173.458 589.298 158.185ZM588.798 228.229C581.32 228.229 577.578 222.524 577.578 211.106C577.578 203.911 578.662 195.222 580.82 185.043C576.331 192.943 569.601 201.544 560.618 210.85C549.81 222.257 541.248 227.963 534.933 227.963C531.771 227.963 530.197 225.68 530.197 221.113C530.197 210.411 534.933 196.894 544.41 180.57C554.551 162.663 564.36 154.151 573.837 155.024C579.157 152.218 583.314 150.812 586.308 150.812C587.308 150.812 590.708 151.251 596.533 152.129C598.859 151.073 600.769 150.551 602.269 150.551C604.095 150.551 605.011 151.429 605.011 153.179C605.011 154.762 604.095 157.751 602.269 162.13C600.438 166.524 599.027 168.891 598.028 169.247C595.697 173.986 593.663 180.612 591.92 189.124C590.174 197.641 589.298 204.705 589.298 210.323C589.298 216.995 591.129 220.329 594.786 220.329C598.275 220.329 602.516 217.957 607.51 213.217C612.493 208.478 614.904 206.106 614.74 206.106C615.067 206.106 615.235 206.289 615.235 206.633C615.235 210.495 611.078 215.678 602.769 222.173C597.612 226.207 592.955 228.229 588.798 228.229Z" fill="#FFEDCC"/>
<path d="M678.577 157.922C678.577 161.611 677.246 165.295 674.588 168.979C671.925 172.668 669.011 174.512 665.863 174.512C665.195 174.512 664.863 174.246 664.863 173.718C664.863 173.373 665.027 172.929 665.358 172.401C666.689 169.423 667.353 165.911 667.353 161.872C667.353 156.783 665.942 154.233 663.116 154.233C660.454 154.233 657.296 155.639 653.639 158.45C648.65 162.311 642.746 170.656 635.932 183.463C628.949 196.803 625.46 206.554 625.46 212.688C625.46 218.838 628.454 221.905 634.437 221.905C639.426 221.905 644.909 219.8 650.897 215.588C655.049 212.604 659.538 208.565 664.363 203.476C668.352 199.259 670.51 197.159 670.847 197.159C671.178 197.159 671.346 197.509 671.346 198.209C671.346 202.248 668.268 206.81 662.122 211.899C648.814 222.611 634.848 227.961 620.224 227.961C616.061 227.961 613.488 227.078 612.488 225.328C611.657 224.105 611.246 221.822 611.246 218.483C611.246 215.682 611.578 212.871 612.241 210.06C616.566 193.908 623.213 180.302 632.19 169.245C643.167 155.727 655.633 148.966 669.599 148.966C675.588 148.966 678.577 151.955 678.577 157.922Z" fill="#FFEDCC"/>
<path d="M736.679 157.922C736.679 161.611 735.343 165.295 732.69 168.979C730.028 172.668 727.113 174.512 723.965 174.512C723.297 174.512 722.966 174.246 722.966 173.718C722.966 173.373 723.129 172.929 723.46 172.401C724.792 169.423 725.455 165.911 725.455 161.872C725.455 156.783 724.044 154.233 721.219 154.233C718.556 154.233 715.399 155.639 711.741 158.45C706.753 162.311 700.849 170.656 694.034 183.463C687.051 196.803 683.562 206.554 683.562 212.688C683.562 218.838 686.556 221.905 692.539 221.905C697.528 221.905 703.011 219.8 709 215.588C713.152 212.604 717.64 208.565 722.466 203.476C726.455 199.259 728.612 197.159 728.949 197.159C729.28 197.159 729.449 197.509 729.449 198.209C729.449 202.248 726.37 206.81 720.224 211.899C706.916 222.611 692.95 227.961 678.326 227.961C674.164 227.961 671.59 227.078 670.591 225.328C669.759 224.105 669.348 221.822 669.348 218.483C669.348 215.682 669.675 212.871 670.343 210.06C674.669 193.908 681.315 180.302 690.292 169.245C701.269 155.727 713.736 148.966 727.702 148.966C733.69 148.966 736.679 151.955 736.679 157.922Z" fill="#FFEDCC"/>
<path d="M792.538 228.229C785.219 228.229 781.566 222.523 781.566 211.111C781.566 207.249 782.066 202.16 783.061 195.837C784.224 188.292 784.892 183.202 785.055 180.569C763.112 210.238 748.067 225.067 739.916 225.067C733.764 225.067 730.691 221.645 730.691 214.8C730.691 209.005 732.517 201.893 736.179 193.47C736.674 192.415 740.005 185.836 746.152 173.719H745.652C744.657 173.719 744.162 173.28 744.162 172.402C744.162 172.057 744.241 171.613 744.405 171.085C749.23 161.962 751.972 157.045 752.635 156.345C755.792 152.656 760.781 150.811 767.6 150.811C768.432 150.811 768.847 151.339 768.847 152.389C768.847 153.795 764.438 161.873 755.629 176.613C753.135 180.83 750.477 186.536 747.651 193.731C744.489 201.987 742.915 207.871 742.915 211.372C742.915 213.833 743.657 215.061 745.157 215.061C747.483 215.061 751.056 212.871 755.881 208.477C767.185 198.476 778.157 184.519 788.797 166.612L789.549 163.712C790.875 158.45 792.954 154.855 795.78 152.917C798.611 150.989 802.268 150.022 806.752 150.022C809.409 150.022 810.745 150.722 810.745 152.128C810.745 153.356 809.33 155.728 806.504 159.239C803.174 163.279 801.268 165.734 800.768 166.612C798.774 170.651 796.943 177.408 795.285 186.886C793.785 195.67 793.038 202.865 793.038 208.477C793.038 216.378 794.943 220.328 798.774 220.328C802.1 220.328 806.291 217.956 811.369 213.216C816.437 208.477 818.887 206.11 818.723 206.11C818.887 206.11 818.976 206.288 818.976 206.633C818.976 210.494 814.903 215.683 806.752 222.172C801.432 226.206 796.695 228.229 792.538 228.229Z" fill="#FFEDCC"/>
<path d="M836.683 184.253V185.042C855.138 166.785 868.767 155.2 877.582 150.283C878.908 149.583 880.407 149.233 882.07 149.233C884.891 149.233 886.307 150.022 886.307 151.6C886.307 153.884 882.565 157.306 875.087 161.873C860.122 171.179 847.734 180.397 837.93 189.52C839.588 195.31 841.998 201.193 845.161 207.166C849.65 215.416 853.723 219.539 857.38 219.539C860.706 219.539 863.992 216.508 867.233 210.458C870.475 204.396 872.177 201.366 872.346 201.366C872.845 201.366 873.088 201.987 873.088 203.215C873.088 204.093 872.925 204.882 872.593 205.582C870.262 212.605 868.352 217.345 866.857 219.8C863.695 224.717 859.627 227.173 854.638 227.173C849.318 227.173 844.24 223.223 839.425 215.322C835.436 208.833 832.942 202.249 831.942 195.576C827.617 200.843 823.628 206.633 819.971 212.955C820.134 213.483 820.223 214.006 820.223 214.533C820.223 218.05 818.56 221.514 815.234 224.937C811.904 228.359 808.504 230.073 805.015 230.073C803.847 230.073 803.352 229.629 803.515 228.756C804.678 226.996 806.336 224.273 808.504 220.589C812.324 212.344 818.229 200.143 826.206 183.992C825.212 179.425 824.712 176.708 824.712 175.83C824.712 172.841 827.29 170.563 832.442 168.979C845.74 137.032 858.543 110.969 870.846 90.7782C870.351 89.5502 870.099 88.3223 870.099 87.0892C870.099 86.389 870.262 85.6888 870.599 84.9834C874.587 77.7882 877.661 72.7824 879.828 69.9764C881.655 67.8706 885.228 66.8151 890.553 66.8151C894.868 66.8151 897.031 67.6982 897.031 69.4487C897.031 69.2762 893.374 74.8934 886.064 86.3001C873.919 105.613 861.705 127.376 849.397 151.6C840.751 168.635 836.515 179.514 836.683 184.253Z" fill="#FFEDCC"/>
</g>
</g>
<defs>
<filter id="filter0_d_1_239" x="62.5707" y="44.1792" width="849.46" height="228.006" filterUnits="userSpaceOnUse" color-interpolation-filters="sRGB">
<feFlood flood-opacity="0" result="BackgroundImageFix"/>
<feColorMatrix in="SourceAlpha" type="matrix" values="0 0 0 0 0 0 0 0 0 0 0 0 0 0 0 0 0 0 127 0" result="hardAlpha"/>
<feOffset/>
<feGaussianBlur stdDeviation="7.5"/>
<feComposite in2="hardAlpha" operator="out"/>
<feColorMatrix type="matrix" values="0 0 0 0 1 0 0 0 0 1 0 0 0 0 1 0 0 0 0.7 0"/>
<feBlend mode="normal" in2="BackgroundImageFix" result="effect1_dropShadow_1_239"/>
<feBlend mode="normal" in="SourceGraphic" in2="effect1_dropShadow_1_239" result="shape"/>
</filter>
</defs>
</svg>
