<svg width="265" height="74" viewBox="0 0 265 74" fill="none" xmlns="http://www.w3.org/2000/svg">
<mask id="mask0_1_324" style="mask-type:luminance" maskUnits="userSpaceOnUse" x="0" y="0" width="265" height="74">
<path d="M0 73.7153H264.567V0.7714H0V73.7153Z" fill="white"/>
</mask>
<g mask="url(#mask0_1_324)">
<path d="M46.2961 39.9171C30.4388 41.0947 22.5108 43.9117 22.5108 48.3681C22.5108 50.2177 23.8775 51.9848 26.6095 53.6654C28.8028 55.0533 31.0655 55.9768 33.3961 56.4399C36.3068 52.7819 40.6068 47.2756 46.2961 39.9171ZM69.4761 38.4679C71.6708 38.6369 72.7681 38.8259 72.7681 39.0349C72.7681 39.414 72.2748 39.6018 71.2895 39.6018C71.6935 39.6018 70.8641 39.5617 68.8041 39.4766C62.8468 48.4745 59.8681 55.0946 59.8681 59.3407C59.8681 60.5596 60.2481 61.1691 61.0108 61.1691C61.2788 61.1691 61.6588 61.1165 62.1521 61.0114C62.6441 60.9063 63.0255 60.8537 63.2948 60.8537C63.6521 60.8537 63.8321 60.8963 63.8321 60.9814C63.8321 61.2329 63.1028 61.527 61.6481 61.8636C60.1921 62.199 59.1961 62.3667 58.6575 62.3667C56.6868 62.3667 55.7028 61.4231 55.7028 59.5309C55.7028 55.9143 59.0388 49.2103 65.7135 39.414C64.5935 39.3715 63.4295 39.3502 62.2188 39.3502C58.0081 39.3502 53.6188 39.4979 49.0508 39.792C44.3481 45.8452 39.7335 51.4591 35.2095 56.6288H35.6801C36.2615 56.6288 36.5535 56.734 36.5535 56.9442C36.5535 57.3647 35.8148 57.5749 34.3361 57.5749C33.4855 58.5848 32.8348 59.0879 32.3868 59.0879C32.1188 59.0879 31.9841 58.9403 31.9841 58.6474C31.9841 58.3521 32.1855 57.9541 32.5895 57.4498C29.8561 57.0706 27.3028 56.0194 24.9295 54.2962C22.2415 52.2788 20.8988 50.0713 20.8988 47.6748C20.8988 41.5365 29.8561 38.3215 47.7735 38.0262C54.5375 28.987 57.9188 23.2279 57.9188 20.7463C57.9188 18.729 56.0388 17.7203 52.2748 17.7203C49.4975 17.7203 46.2961 18.2672 42.6681 19.3597C39.3521 20.3271 36.3735 21.546 33.7321 23.0177C29.0721 25.5819 26.7441 28.1048 26.7441 30.5839C26.7441 31.7615 27.3255 32.7714 28.4908 33.6111C29.2068 34.158 30.2815 34.7049 31.7161 35.2505C32.8801 35.7148 33.4628 36.0076 33.4628 36.134C33.4628 36.3017 33.2615 36.3856 32.8575 36.3856C30.9761 36.3856 29.0721 35.9238 27.1468 34.999C24.8628 33.9477 23.7201 32.6237 23.7201 31.0256C23.7201 28.041 26.7881 24.9086 32.9255 21.6298C35.7908 20.1168 38.9935 18.8541 42.5335 17.8455C46.2961 16.753 49.6988 16.2061 52.7455 16.2061C58.0308 16.2061 60.6748 17.8254 60.6748 21.0629C60.6748 23.3743 57.2468 29.0296 50.3948 38.0262H51.9388C57.0908 38.0262 61.9281 38.1313 66.4521 38.3416C70.9761 31.7828 75.1415 26.2326 78.9495 21.6924C78.9041 21.3996 79.0175 20.9991 79.2855 20.4948C80.1361 19.57 81.2108 18.3298 82.5108 16.7742C82.6441 16.564 82.8468 16.2912 83.1148 15.9545C83.8761 15.2813 85.0641 14.9446 86.6761 14.9446C87.5721 14.9446 88.0201 15.1336 88.0201 15.5128C88.0201 15.6392 87.9748 15.7443 87.8855 15.8281C86.6308 17.1734 84.7281 19.2546 82.1748 22.0716C77.2468 27.7469 73.0135 33.2132 69.4761 38.4679Z" fill="#BF9337"/>
<path d="M85.6001 44.7101C85.6001 44.8791 85.2868 44.9629 84.6601 44.9629C84.3908 44.9629 83.9881 44.9316 83.4508 44.8678C82.9121 44.8052 82.5095 44.774 82.2401 44.774C80.2255 44.774 77.6948 45.068 74.6481 45.6562C73.0801 48.3468 72.2961 50.3654 72.2961 51.7107C72.2961 53.1836 73.1028 53.917 74.7161 53.917C76.0601 53.917 77.5601 53.4127 79.2175 52.404C80.3361 51.6894 81.5241 50.7233 82.7788 49.5032C83.8535 48.4932 84.4135 47.9902 84.4588 47.9902C84.5935 47.9902 84.6601 48.074 84.6601 48.2417C84.6601 49.2103 83.8308 50.3028 82.1735 51.5205C78.5895 54.0859 74.8268 55.3687 70.8855 55.3687C69.8108 55.3687 69.1161 55.1572 68.8028 54.7379C68.5788 54.4438 68.4668 53.897 68.4668 53.0973C68.4668 51.543 69.2068 49.2929 70.6841 46.3508C70.6388 46.2669 70.6175 46.2031 70.6175 46.1606C70.6175 46.1193 70.8188 45.8252 71.2215 45.2783C71.4908 44.8165 71.8708 44.1645 72.3641 43.3235C74.3348 40.2963 76.5068 38.4892 78.8815 37.8998C79.4628 37.7734 79.9335 37.7108 80.2921 37.7108C80.6055 37.7108 80.7628 37.7734 80.7628 37.8998C80.7628 38.0675 80.4708 38.3416 79.8895 38.7195C78.7241 39.5192 77.2908 41.2849 75.5895 44.0168C77.9175 43.6389 79.9335 43.5125 81.6361 43.6389C82.9801 41.8306 83.6521 40.0861 83.6521 38.4041C83.6521 37.9411 83.5961 37.6695 83.4841 37.5844C83.3721 37.5006 83.1028 37.458 82.6775 37.458C82.2521 37.458 82.0401 37.3542 82.0401 37.1427C82.0401 36.9324 82.3975 36.7435 83.1148 36.5758C83.8308 36.4081 84.3908 36.323 84.7948 36.323C86.0041 36.323 86.6081 36.8498 86.6081 37.8998C86.6081 38.7833 86.2055 39.8771 85.3988 41.1798C84.5935 42.4826 83.7868 43.3448 82.9801 43.764C84.7268 44.0581 85.6001 44.3735 85.6001 44.7101Z" fill="#BF9337"/>
<path d="M100.986 39.4137C100.986 37.8169 100.404 37.0172 99.2395 37.0172C98.1649 37.0172 97.2915 37.6266 96.6195 38.8455C96.9315 39.2247 97.0902 39.5826 97.0902 39.9168C97.0902 40.0857 97.0435 40.1921 96.9555 40.2334C95.6555 40.9492 94.6035 41.6826 93.7969 42.4409C93.4382 43.5747 93.2595 44.9 93.2595 46.4143C93.2595 48.8946 93.7075 50.9119 94.6035 52.4675C96.0809 51.1647 97.5142 49.1249 98.9035 46.3504C100.292 43.5747 100.986 41.2646 100.986 39.4137ZM94.0662 52.9092C92.7662 50.9758 92.0942 48.4541 92.0502 45.3405C90.4822 47.6957 89.6982 49.6292 89.6982 51.1434C89.6982 52.9505 90.3929 53.8553 91.7822 53.8553C92.4969 53.8553 93.2595 53.54 94.0662 52.9092ZM99.9782 35.5668C102.71 35.5668 104.077 36.6806 104.077 38.9094C104.077 40.8854 103.024 43.4709 100.92 46.6658C98.9929 49.6079 97.0902 51.8155 95.2089 53.2872C95.8795 54.0443 96.7529 54.4222 97.8289 54.4222C98.1862 54.4222 98.3662 54.5073 98.3662 54.6738C98.3662 54.9265 98.1409 55.0529 97.6942 55.0529C96.5742 55.0529 95.5662 54.5699 94.6702 53.6025C92.9235 54.8227 91.0649 55.4321 89.0942 55.4321C86.9875 55.4321 85.9355 54.5486 85.9355 52.7828C85.9355 51.0158 86.6969 48.7695 88.2195 46.0351C89.5649 43.8075 91.0195 41.8315 92.5875 40.1082V39.9806C92.5422 38.6366 93.4382 37.5215 95.2755 36.6393C96.7969 35.9234 98.3662 35.5668 99.9782 35.5668Z" fill="#BF9337"/>
<path d="M110.863 44.8997V45.0886C115.835 40.7161 119.507 37.9417 121.881 36.764C122.24 36.5964 122.643 36.5125 123.091 36.5125C123.852 36.5125 124.233 36.7015 124.233 37.0794C124.233 37.6263 123.225 38.446 121.209 39.5397C117.179 41.7686 113.841 43.9761 111.199 46.1611C111.645 47.5477 112.296 48.9568 113.147 50.3872C114.357 52.3632 115.453 53.3506 116.44 53.3506C117.335 53.3506 118.22 52.6248 119.093 51.1756C119.967 49.724 120.425 48.9981 120.471 48.9981C120.605 48.9981 120.672 49.147 120.672 49.4411C120.672 49.6514 120.627 49.8403 120.537 50.008C119.911 51.69 119.396 52.825 118.993 53.4132C118.141 54.5908 117.044 55.179 115.7 55.179C114.267 55.179 112.9 54.2329 111.601 52.3407C110.527 50.7864 109.855 49.2096 109.585 47.6115C108.42 48.873 107.345 50.2596 106.361 51.7738C106.405 51.9002 106.428 52.0254 106.428 52.1518C106.428 52.994 105.98 53.8237 105.085 54.6434C104.188 55.4631 103.271 55.8735 102.329 55.8735C102.017 55.8735 101.883 55.7672 101.927 55.5582C102.24 55.1364 102.688 54.4844 103.271 53.6022C104.3 51.6274 105.891 48.7053 108.041 44.8371C107.772 43.7433 107.637 43.0926 107.637 42.8823C107.637 42.1665 108.332 41.6209 109.721 41.2417C113.304 33.5904 116.752 27.3482 120.068 22.5126C119.933 22.2186 119.865 21.9245 119.865 21.6291C119.865 21.4614 119.911 21.2937 120.001 21.1248C121.076 19.4016 121.904 18.2027 122.487 17.5307C122.979 17.0263 123.941 16.7735 125.376 16.7735C126.54 16.7735 127.123 16.985 127.123 17.4043C127.123 17.363 126.137 18.7083 124.167 21.4402C120.896 26.0655 117.604 31.2777 114.289 37.0794C111.96 41.1591 110.817 43.7646 110.863 44.8997Z" fill="#BF9337"/>
<path d="M134.984 50.2597C134.984 51.1432 135.094 51.9216 135.32 52.5937C135.542 53.2657 135.968 53.6023 136.596 53.6023C137.58 53.6023 138.857 52.9716 140.425 51.7101C140.829 51.3747 141.176 51.0907 141.466 50.8592C141.757 50.6289 142.014 50.4287 142.238 50.2597C142.462 50.092 142.665 49.9231 142.845 49.7566C142.933 49.7566 142.978 49.7979 142.978 49.8818C143.022 50.0507 142.91 50.3448 142.642 50.764C141.881 51.9004 140.873 52.909 139.62 53.7913C138.23 54.7599 136.886 55.2417 135.588 55.2417C134.916 55.2417 134.3 55.094 133.74 54.8012C133.178 54.5071 132.721 54.0754 132.362 53.5085C132.004 52.9416 131.78 52.237 131.69 51.3948C131.601 50.5551 131.713 49.5889 132.026 48.4939C132.25 47.6117 132.497 46.7394 132.766 45.8772C133.034 45.0162 133.346 44.1852 133.706 43.3868C132.989 44.3116 132.238 45.3203 131.456 46.414C130.672 47.5065 129.865 48.5678 129.037 49.5977C128.208 50.6289 127.357 51.585 126.484 52.4673C125.61 53.3508 124.737 54.0228 123.864 54.4846C122.989 54.9476 122.117 55.1566 121.242 55.1166C120.37 55.074 119.508 54.6535 118.656 53.8551C118.298 53.5185 118.118 53.098 118.118 52.5937C118.118 52.0893 118.242 51.6163 118.488 51.1745C118.734 50.7328 119.082 50.3961 119.529 50.1659C119.977 49.9343 120.47 49.9444 121.008 50.1971C121.321 51.7952 121.87 52.6675 122.654 52.8139C123.437 52.9616 124.31 52.6988 125.274 52.0255C126.237 51.3535 127.245 50.3874 128.297 49.1247C129.349 47.8632 130.336 46.6018 131.254 45.3403C132.172 44.0801 132.966 42.9451 133.64 41.9364C134.31 40.9265 134.736 40.3383 134.916 40.1694C135.454 39.3296 135.957 38.6564 136.428 38.152C136.898 37.6477 137.648 37.3949 138.678 37.3949L139.014 37.5213C138.88 37.5213 138.622 37.9531 138.241 38.814C137.86 39.6763 137.457 40.7475 137.032 42.0302C136.606 43.313 136.202 44.6896 135.822 46.1613C135.442 47.6329 135.162 48.9983 134.984 50.2597Z" fill="#BF9337"/>
<path d="M158.766 38.6566C158.364 38.4889 157.938 38.4038 157.49 38.4038C155.833 38.4038 154.309 39.1196 152.921 40.5488C151.712 41.7689 150.458 43.5234 149.16 45.8136C147.86 48.1062 146.918 50.1561 146.337 51.9619C146.202 52.2998 146.136 52.5738 146.136 52.7828C146.136 53.0769 146.246 53.2246 146.472 53.2246C146.785 53.2246 147.3 52.9718 148.016 52.4675C150.39 50.8694 152.496 48.7895 154.333 46.224C155.273 44.8374 156.752 42.3145 158.766 38.6566ZM158.632 55.4321C156.617 55.4321 155.609 54.0656 155.609 51.3312C155.609 49.6079 155.901 47.5268 156.482 45.089C155.273 46.9812 153.46 49.041 151.04 51.2698C148.128 54.0017 145.821 55.3683 144.12 55.3683C143.268 55.3683 142.844 54.8214 142.844 53.7277C142.844 51.1647 144.12 47.9272 146.673 44.0177C149.405 39.7291 152.048 37.6905 154.601 37.8995C156.034 37.2274 157.154 36.8908 157.961 36.8908C158.23 36.8908 159.146 36.9959 160.716 37.2062C161.342 36.9534 161.857 36.8282 162.261 36.8282C162.753 36.8282 163 37.0385 163 37.4577C163 37.8369 162.753 38.5527 162.261 39.6014C161.768 40.6539 161.388 41.2208 161.118 41.3059C160.49 42.4409 159.942 44.0278 159.473 46.0664C159.002 48.1062 158.766 49.7981 158.766 51.1434C158.766 52.7415 159.26 53.54 160.245 53.54C161.185 53.54 162.328 52.9718 163.673 51.8367C165.016 50.7017 165.665 50.1335 165.621 50.1335C165.709 50.1335 165.754 50.1773 165.754 50.2599C165.754 51.1847 164.634 52.4262 162.396 53.9817C161.006 54.9478 159.752 55.4321 158.632 55.4321Z" fill="#BF9337"/>
<path d="M182.82 38.5934C182.82 39.4769 182.461 40.3592 181.745 41.2414C181.028 42.1249 180.242 42.5667 179.394 42.5667C179.214 42.5667 179.125 42.5029 179.125 42.3765C179.125 42.2939 179.169 42.1875 179.258 42.0611C179.617 41.3478 179.796 40.5068 179.796 39.5395C179.796 38.3206 179.416 37.7099 178.654 37.7099C177.937 37.7099 177.086 38.0465 176.101 38.7198C174.757 39.6446 173.166 41.6431 171.33 44.7104C169.449 47.9053 168.509 50.2405 168.509 51.7097C168.509 53.1827 169.316 53.9173 170.928 53.9173C172.272 53.9173 173.749 53.4129 175.362 52.4043C176.481 51.6897 177.69 50.7223 178.99 49.5034C180.065 48.4935 180.646 47.9904 180.737 47.9904C180.826 47.9904 180.872 48.0743 180.872 48.242C180.872 49.2093 180.042 50.3018 178.386 51.5207C174.801 54.0862 171.038 55.3677 167.098 55.3677C165.977 55.3677 165.284 55.1562 165.014 54.7369C164.79 54.4441 164.68 53.8972 164.68 53.0976C164.68 52.4268 164.769 51.7535 164.948 51.0802C166.113 47.212 167.904 43.9533 170.322 41.3052C173.28 38.0678 176.638 36.4484 180.401 36.4484C182.014 36.4484 182.82 37.1642 182.82 38.5934Z" fill="#BF9337"/>
<path d="M198.473 38.5934C198.473 39.4769 198.113 40.3592 197.399 41.2414C196.681 42.1249 195.896 42.5667 195.048 42.5667C194.868 42.5667 194.779 42.5029 194.779 42.3765C194.779 42.2939 194.823 42.1875 194.912 42.0611C195.271 41.3478 195.449 40.5068 195.449 39.5395C195.449 38.3206 195.069 37.7099 194.308 37.7099C193.591 37.7099 192.74 38.0465 191.755 38.7198C190.411 39.6446 188.82 41.6431 186.984 44.7104C185.103 47.9053 184.163 50.2405 184.163 51.7097C184.163 53.1827 184.969 53.9173 186.581 53.9173C187.925 53.9173 189.403 53.4129 191.016 52.4043C192.135 51.6897 193.344 50.7223 194.644 49.5034C195.719 48.4935 196.3 47.9904 196.391 47.9904C196.48 47.9904 196.525 48.0743 196.525 48.242C196.525 49.2093 195.696 50.3018 194.04 51.5207C190.455 54.0862 186.692 55.3677 182.752 55.3677C181.631 55.3677 180.937 55.1562 180.668 54.7369C180.444 54.4441 180.333 53.8972 180.333 53.0976C180.333 52.4268 180.421 51.7535 180.601 51.0802C181.767 47.212 183.557 43.9533 185.976 41.3052C188.933 38.0678 192.292 36.4484 196.055 36.4484C197.668 36.4484 198.473 37.1642 198.473 38.5934Z" fill="#BF9337"/>
<path d="M213.523 55.4316C211.551 55.4316 210.567 54.0651 210.567 51.3319C210.567 50.4071 210.701 49.1882 210.969 47.674C211.283 45.8669 211.463 44.648 211.507 44.0173C205.595 51.1229 201.541 54.6745 199.345 54.6745C197.688 54.6745 196.86 53.8548 196.86 52.2154C196.86 50.8276 197.352 49.1244 198.339 47.1071C198.472 46.8543 199.369 45.2787 201.025 42.3766H200.891C200.623 42.3766 200.489 42.2715 200.489 42.0613C200.489 41.9787 200.511 41.8723 200.555 41.7459C201.855 39.5609 202.593 38.3833 202.772 38.2156C203.623 37.3321 204.967 36.8903 206.804 36.8903C207.028 36.8903 207.14 37.0167 207.14 37.2682C207.14 37.6049 205.952 39.5396 203.579 43.0699C202.907 44.0798 202.191 45.4464 201.429 47.1696C200.577 49.1469 200.153 50.556 200.153 51.3945C200.153 51.9839 200.353 52.278 200.757 52.278C201.384 52.278 202.347 51.7537 203.647 50.7012C206.692 48.3059 209.648 44.9633 212.515 40.6747L212.717 39.9801C213.075 38.7199 213.635 37.8589 214.396 37.3946C215.159 36.9329 216.144 36.7013 217.352 36.7013C218.068 36.7013 218.428 36.869 218.428 37.2057C218.428 37.4998 218.047 38.0679 217.285 38.9089C216.388 39.8762 215.875 40.4644 215.74 40.6747C215.203 41.642 214.709 43.2601 214.263 45.5302C213.859 47.6339 213.657 49.3572 213.657 50.7012C213.657 52.5934 214.171 53.5395 215.203 53.5395C216.099 53.5395 217.228 52.9713 218.596 51.8363C219.961 50.7012 220.621 50.1343 220.577 50.1343C220.621 50.1343 220.645 50.1768 220.645 50.2594C220.645 51.1843 219.548 52.4269 217.352 53.9812C215.919 54.9473 214.643 55.4316 213.523 55.4316Z" fill="#BF9337"/>
<path d="M225.416 44.8997V45.0886C230.388 40.7161 234.06 37.9417 236.435 36.764C236.792 36.5964 237.196 36.5125 237.644 36.5125C238.404 36.5125 238.785 36.7015 238.785 37.0794C238.785 37.6263 237.777 38.446 235.763 39.5397C231.731 41.7686 228.393 43.9761 225.752 46.1611C226.199 47.5477 226.848 48.9568 227.7 50.3872C228.909 52.3632 230.007 53.3506 230.992 53.3506C231.888 53.3506 232.773 52.6248 233.647 51.1756C234.52 49.724 234.979 48.9981 235.024 48.9981C235.159 48.9981 235.224 49.147 235.224 49.4411C235.224 49.6514 235.18 49.8403 235.091 50.008C234.463 51.69 233.948 52.825 233.545 53.4132C232.693 54.5908 231.597 55.179 230.253 55.179C228.82 55.179 227.452 54.2329 226.155 52.3407C225.08 50.7864 224.408 49.2096 224.139 47.6115C222.973 48.873 221.899 50.2596 220.913 51.7738C220.957 51.9002 220.981 52.0254 220.981 52.1518C220.981 52.994 220.533 53.8237 219.637 54.6434C218.74 55.4631 217.824 55.8735 216.884 55.8735C216.569 55.8735 216.436 55.7672 216.48 55.5582C216.793 55.1364 217.24 54.4844 217.824 53.6022C218.853 51.6274 220.444 48.7053 222.593 44.8371C222.325 43.7433 222.191 43.0926 222.191 42.8823C222.191 42.1665 222.885 41.6209 224.273 41.2417C227.856 33.5904 231.305 27.3482 234.62 22.5126C234.487 22.2186 234.419 21.9245 234.419 21.6291C234.419 21.4614 234.463 21.2937 234.553 21.1248C235.628 19.4016 236.456 18.2027 237.04 17.5307C237.532 17.0263 238.495 16.7735 239.929 16.7735C241.092 16.7735 241.675 16.985 241.675 17.4043C241.675 17.363 240.689 18.7083 238.72 21.4402C235.448 26.0655 232.157 31.2777 228.841 37.0794C226.512 41.1591 225.371 43.7646 225.416 44.8997Z" fill="#BF9337"/>
</g>
</svg>
